<?xml version="1.0" encoding="UTF-8" standalone="no"?>
<!-- Generator: Adobe Illustrator 23.0.6, SVG Export Plug-In . SVG Version: 6.00 Build 0)  -->

<svg
   xmlns:dc="http://purl.org/dc/elements/1.1/"
   xmlns:cc="http://creativecommons.org/ns#"
   xmlns:rdf="http://www.w3.org/1999/02/22-rdf-syntax-ns#"
   xmlns:svg="http://www.w3.org/2000/svg"
   xmlns="http://www.w3.org/2000/svg"
   xmlns:sodipodi="http://sodipodi.sourceforge.net/DTD/sodipodi-0.dtd"
   xmlns:inkscape="http://www.inkscape.org/namespaces/inkscape"
   version="1.1"
   id="svg2642"
   inkscape:version="0.92.4 (5da689c313, 2019-01-14)"
   sodipodi:docname="hippo_segments1.svg"
   x="0px"
   y="0px"
   viewBox="0 0 449.67207 204.24418"
   xml:space="preserve"
   width="449.67206"
   height="204.24419"><metadata
   id="metadata18"><rdf:RDF><cc:Work
       rdf:about=""><dc:format>image/svg+xml</dc:format><dc:type
         rdf:resource="http://purl.org/dc/dcmitype/StillImage" /><dc:title></dc:title></cc:Work></rdf:RDF></metadata><defs
   id="defs16" />
<style
   type="text/css"
   id="style2">
	.st0{fill:none;}
</style>
<sodipodi:namedview
   bordercolor="#666666"
   borderopacity="1.0"
   id="base"
   inkscape:current-layer="svg2642"
   inkscape:cx="-950.35"
   inkscape:cy="-20.033005"
   inkscape:document-units="mm"
   inkscape:pageopacity="0.0"
   inkscape:pageshadow="2"
   inkscape:window-height="1694"
   inkscape:window-maximized="1"
   inkscape:window-width="3200"
   inkscape:window-x="0"
   inkscape:window-y="50"
   inkscape:zoom="0.35"
   pagecolor="#ffffff"
   showgrid="false"
   fit-margin-top="0"
   fit-margin-left="0"
   fit-margin-right="0"
   fit-margin-bottom="0">
	</sodipodi:namedview>
<g
   id="g13"
   transform="translate(-60.35,-69.051402)">
	<path
   class="st0"
   d="m 505.9,227.8 c 0,0 0,-0.1 0,-0.2 0,-0.5 -0.5,-1.5 -1.1,-2.3 0.1,0.2 0.1,0.4 0.1,0.5 0.3,1 0.7,1.7 1,2 z"
   id="path5"
   inkscape:connector-curvature="0"
   style="fill:none" />
	<path
   class="st0"
   d="m 472.7,165.6 c -0.6,0 -1.2,0.6 -1.2,1.1 0,0.6 0.4,0.9 0.6,1 0.4,0.2 1.1,0.2 1.6,-0.4 0.2,-0.2 0.4,-0.5 0.5,-0.7 -0.1,-0.3 -1.1,-1 -1.5,-1 z"
   id="path7"
   inkscape:connector-curvature="0"
   style="fill:none" />
	<path
   d="m 172.6,198.8 v 0 0 z"
   id="path9"
   inkscape:connector-curvature="0" />
	<path
   d="m 501.4,211.9 c -5.9,-8.2 -9.8,-14.5 -14.4,-23.5 -5.6,-10.8 -6.1,-12.8 -5.2,-19.3 1.1,-7.7 0,-9.5 -3.9,-11.5 -3.3,-1.6 -5.8,-3.8 -6.9,-6 -0.5,-0.9 -1.5,-4.6 -2.2,-7.5 -0.7,-3.1 -1.4,-5.3 -2.4,-7.2 0.4,1.3 0.6,2.6 0.5,4 -0.1,3.5 -1.5,6.5 -4.1,8 -1.1,0.7 -3.3,1.6 -4.4,1 -0.4,-0.3 -0.7,-0.7 -0.7,-1.2 0,-0.4 0,-1 2.8,-2.3 1.7,-0.8 2.8,-2.4 3.1,-4.5 0.4,-2.9 -0.8,-6 -3.1,-8 -1.7,-1.5 -2.5,-1.7 -4.7,-1.6 -4.1,0.3 -4.7,5.7 -4.7,8.9 0,5.1 -0.8,5.1 -1.5,5.1 -0.4,0 -0.7,-0.2 -1,-0.5 -1,-1.2 -1.1,-4.9 -0.8,-7.2 0.5,-4.3 2.6,-7.6 5.5,-9 2.4,-1.1 5.1,-0.9 7.7,0.6 -0.5,-0.5 -1,-1 -1.6,-1.5 -5.8,-5.2 -9.8,-7.7 -13.5,-8.9 -2.6,-0.8 -2.6,-0.8 -3.9,0 -0.7,0.4 -2.1,1.9 -3,3.5 -0.9,1.6 -4.7,7.6 -8.5,13.4 -3.8,5.8 -7.7,12.1 -8.6,14 -0.7,1.4 -2,3.9 -2.7,4.3 -1,0.6 -1.7,0.2 -1.9,0 -0.5,-0.6 -1.8,-1.9 11,-20.8 3,-4.4 6.2,-9.6 7.1,-11.2 0.9,-1.8 2.5,-4 3.7,-5 0.5,-0.4 0.9,-0.8 1.2,-1.1 -2.5,-1.7 -11.6,-6.8 -22.1,-12.1 C 395.6,93.4 389.9,91.4 382.8,92 l -0.8,0.1 c -2.4,0.2 -4.2,0.3 -4.5,0.7 -0.2,0.3 -0.1,1.4 0,2.6 V 96 c 0.2,2.7 1.3,6.7 3.2,12.5 1.6,4.8 3.2,10.5 3.6,12.8 0.3,2.1 1.6,7.1 2.9,11.1 1.3,4.1 2.5,9 2.7,11.1 0.3,3.3 0.1,4.5 -1,4.6 -1,0.1 -1.7,-0.6 -2.3,-4.8 -0.3,-2.1 -1.5,-6.9 -2.7,-10.5 -1.2,-3.8 -2.4,-8.5 -2.8,-10.5 -0.3,-1.9 -1.9,-7.7 -3.5,-12.6 -2.2,-6.8 -3.1,-10.4 -3.3,-13.6 l -0.3,-3.6 -2.5,-1.1 c -14.7,-6.6 -30,-10.9 -46.9,-13.2 -3.5,-0.5 -13.7,-1 -23.7,-1.3 -20.3,-0.6 -23.8,-0.9 -37.4,-3.6 l -9.8,-1.9 -16,-0.1 C 226,71 219.4,70.7 213.5,70 c -9.3,-1.1 -22.2,-1.3 -28.1,-0.3 -5.7,0.9 -12.8,3.3 -20.6,6.8 -10.8,4.9 -19,8.5 -27.3,12 -40.6,17.2 -71.4,47.3 -76.7,75 -0.6,3.2 -0.6,3.6 0,4.9 0.7,1.5 1.8,2.5 3,2.7 1,0.2 2,-0.1 2.8,-0.9 0.5,-0.5 2.3,-3.2 4.2,-6.6 1.7,-3.1 3.7,-6.6 4.5,-7.9 0.8,-1.1 3.2,-5.6 5.4,-9.7 4.1,-7.9 7,-12.3 9,-13.5 0.5,-0.3 1.7,-1 2.4,-0.2 0.6,0.8 0.2,1.9 -1.7,4 -1.1,1.2 -3.6,5.3 -5.6,9.1 -2,3.9 -4.7,8.8 -6,10.8 -5.5,8.6 -6.8,12.9 -6.2,20.9 1.1,14.6 7,26.5 16.4,32.6 2.2,1.5 3.5,2.4 2.9,4.2 -2.7,8.8 -2.5,12.9 1.9,31.6 3.3,14.1 6.3,19 14.1,22.7 5.6,2.7 11.9,4.7 13.8,4.7 0.8,0 1.6,-0.4 2.3,-1 1.8,-1.8 4.1,-2.1 6.7,-0.7 0.9,0.5 2.4,0.6 5.4,0.4 5.6,-0.3 6.7,-1.5 6.8,-2 0.8,-2 0.2,-3.1 -9.1,-12.6 -9.7,-9.9 -12.3,-18.7 -8.3,-27.8 0.9,-2.1 1.9,-4.8 2.1,-6.1 0.3,-1.8 0.3,-1.8 -1.6,-3.7 -2.6,-2.4 -5.3,-3.7 -9.3,-4.6 -2.1,-0.5 -2.9,-0.9 -3.1,-1.6 -0.1,-0.4 0,-0.9 0.3,-1.2 1.5,-1.5 7.4,0.6 9.5,1.6 6.3,3.2 9.4,7.3 16.1,21 5.8,11.8 7.5,14.9 11.9,20.4 5.6,7.1 14,13.1 23.1,16.4 4.3,1.6 4.3,1.6 6.7,0.8 1.3,-0.4 2.1,-0.6 3,-0.6 1,0 2.1,0.3 4,0.8 4.7,1.3 10.1,1.2 12.5,-0.4 2,-1.3 3,-1.3 6.5,-1 4.3,0.4 6.2,-0.4 6.7,-1.2 0.3,-0.6 -0.1,-1.7 -1.2,-2.9 -0.8,-0.9 -3,-2.4 -5.1,-3.3 -8.7,-3.9 -11,-5.1 -12.7,-7.1 -5.6,-6.2 -7.9,-8.5 -10.8,-10.6 -1.7,-1.3 -3.8,-3.2 -4.3,-4.4 0,-0.1 -0.1,-0.2 -0.2,-0.4 -0.1,0.1 -0.2,0.1 -0.2,0.1 -1.5,1 -5.7,1 -7.3,0.4 -0.7,-0.2 -1.1,-0.6 -1.2,-1.1 -0.1,-0.4 -0.1,-0.8 0.2,-1.1 0.5,-0.6 1.3,-0.7 3.3,-0.5 2,0.2 2.7,0 3.5,-0.5 l 0.9,-0.6 -0.3,-6.1 c -0.1,-2.7 -0.3,-4.8 -0.4,-5.8 -0.1,0 -0.3,0.1 -0.4,0.2 -3.1,1.2 -14.7,0.2 -17,-1.4 -0.6,-0.4 -0.7,-0.9 -0.7,-1.2 0,-0.4 0.2,-0.8 0.5,-1.1 0.7,-0.6 2,-0.5 5.8,0.4 3.7,0.9 6.7,1 9.7,0.2 1.9,-0.5 2.2,-0.8 2.2,-3.3 0,-0.1 0,-0.2 0,-0.3 -0.6,-0.2 -2.7,-0.5 -5.7,-0.7 -8,-0.8 -13.8,-2 -22,-4.7 l -0.5,-0.1 c -5.9,-1.9 -6.3,-2 -6.6,-2.8 -0.2,-0.6 0.1,-1 0.2,-1.3 0.4,-0.6 0.7,-1.2 7.6,1.1 9.7,3.2 21.3,5.2 30.9,5.2 h 1.4 l -2.2,-2.2 c -2.7,-2.8 -10.7,-13.1 -10.7,-15 0,-1 0.6,-1.4 0.9,-1.5 1,-0.3 1.8,0.4 4.7,4.8 9.7,14.9 24.8,24.3 44.9,28 7.4,1.3 22.8,1.8 31.7,1 24.4,-2.2 54.8,-10.7 83.4,-23.3 2.8,-1.2 20.9,-7.9 22.3,-7.9 0.4,0 0.7,0.2 0.9,0.5 0.3,0.4 0.3,0.9 0.1,1.5 -0.1,0.4 -0.4,1.1 -9.6,4.3 -4.8,1.7 -12.5,4.6 -17,6.6 L 328,215 c 4,0.3 11.1,-0.4 16.2,-1.7 8.9,-2.3 17,-6.9 24.1,-13.9 4.3,-4.2 4.8,-3.7 5.4,-3.2 0.3,0.3 0.4,0.6 0.4,1 -0.2,2.2 -7.8,8.8 -11.8,11.5 -10.1,6.8 -21.4,9.8 -34.4,9.3 l -6.4,-0.3 -17.2,5.9 -0.3,1.8 c -0.2,1 -0.2,4 0.9,12.5 0.7,5.7 1.6,12.9 1.9,15.9 0.7,6.9 1.7,10 3.7,12.1 1.3,1.4 1.9,1.6 3,1.6 1.3,0 3.7,0.7 5.2,1.4 2,0.9 3.5,1.2 5.8,1.2 3,0 3,-0.1 4.6,-1.6 l 2.3,-2.3 3.6,0.9 c 6.4,1.6 8.7,1.1 9.5,0.6 0.3,-0.2 0.5,-0.4 0.6,-0.8 0.2,-1.1 -0.6,-2.4 -5.5,-5.8 -6.1,-4.2 -6.8,-5 -9.3,-10 -1.6,-3.3 -2.1,-5.1 -2.2,-8.3 l -0.2,-4.4 3.7,-3.7 c 3,-2.9 5,-4.2 13,-8.2 5,-2.5 10.6,-5.6 12.2,-6.7 0.1,-0.1 11.3,-6.7 12.9,-5.1 0.4,0.4 0.5,0.9 0.4,1.4 -0.2,0.9 -1.3,1.7 -3.7,2.5 -1.3,0.4 -3.7,1.5 -5.1,2.3 l -1.7,1 2.2,2.4 c 1.7,1.9 5.5,6 8.6,9.3 4.8,5 6.2,7 8.7,11.8 7.3,14.2 11.9,18.1 14.4,18.8 1.3,0.4 2,0.4 4.2,-0.2 2.7,-0.8 3.4,-0.8 6.1,0.1 2.3,0.7 2.5,0.7 4.6,0 2.1,-0.7 4.2,-0.9 9.3,-0.7 5.6,0.2 6.5,0.1 7.8,-0.6 1.2,-0.6 1.5,-1 1.5,-1.2 0.1,-1.3 -5.1,-5.4 -8.2,-7.8 -7.9,-6.1 -21.2,-19.1 -23.6,-23.2 -2.3,-3.9 -3.4,-9.1 -3.8,-19.3 -0.4,-8.8 0.3,-17.5 2,-26.5 0.9,-4.8 2.8,-12.9 4.8,-12.9 0.4,0 0.8,0.2 1,0.5 0.3,0.5 0.4,1.1 0.1,2 -5.1,17.4 -6.4,36.2 -3.2,46.9 1.4,4.7 5.5,7.9 8.9,7 1.6,-0.4 2.7,-1.6 3.4,-6.2 0.2,-1.4 3.5,-14.2 5.8,-14.2 0.7,0 1,0.4 1.2,0.6 0.5,0.8 0.2,1.9 -1.5,6 -1,2.5 -1.6,4.9 -1.7,6.6 0,2.2 0.1,2.5 1.4,3.8 1.2,1.2 1.7,1.5 4.3,1.7 2.8,0.2 2.8,0.2 4,-1 1.4,-1.4 1.7,-2.3 2.2,-10.6 0.3,-4.5 0.5,-6.4 2.1,-6.4 0.5,0 0.9,0.2 1.2,0.5 0.4,0.4 0.5,1 0.3,1.9 -0.1,0.5 -0.4,3 -0.6,5.7 -0.4,6.1 0.5,8.1 1.9,9.1 1.6,1.2 2,2.2 2.3,4.9 0.5,4 0.9,4.2 2.9,4.8 1.9,0.6 3.8,2.1 8.2,6.7 3,3.1 7.4,7 9.7,8.7 2.8,2 6.7,4.4 9.4,6 -1.8,-2.6 -3.4,-6.2 -4.1,-9.7 -0.9,-4.2 -0.2,-6.5 3.5,-11.5 4,-5.5 4.4,-7 4.4,-15.9 0,-6.2 -0.4,-9.6 -1.7,-17.5 -1,-5.8 -1.9,-10.3 -2,-10.8 -0.1,-0.3 -0.4,-1.2 0.2,-1.8 0.2,-0.2 0.7,-0.5 1.4,-0.3 1.6,0.5 1.8,1.7 3.9,14.6 2.2,13.3 2.3,21.5 0.5,26.4 -0.7,1.8 -2.5,5 -4,7.1 -1.6,2.1 -2.8,4.4 -3,5.2 -0.8,3.7 1.6,10.3 5,13.7 3.8,3.8 3.8,3.8 18.1,3.8 0.1,0 0.1,0 0.2,0 12.9,0 13.4,-0.1 15.2,-1 5.5,-3 7.8,-8.5 7.8,-19 0,-5.5 0.1,-6.1 1.8,-8.9 1.3,-2.1 1.5,-2.5 1.2,-4.6 -0.8,-3 -3,-7.2 -8.5,-14.8 z m -29.6,-38.1 c -0.4,0.3 -0.9,0.4 -1.5,0.4 -0.9,0 -1.9,-0.3 -2.7,-0.7 -2.1,-1 -3.2,-3.6 -3,-6.7 0.1,-1.2 0.9,-1.4 1.3,-1.4 1.1,0 1.8,1.4 1.8,2.7 0,1.4 1,2.6 2.2,2.6 2.3,0 2.6,1.3 2.6,1.8 0.1,0.5 -0.2,1 -0.7,1.3 z m 6,-8.9 c -0.2,0.2 -1.1,1 -2.8,-0.3 0,0 -0.1,-0.1 -0.2,-0.1 0.8,0.6 1.5,1.5 1.5,2.3 0,0.8 -0.9,1.7 -1.1,2 -0.7,0.7 -1.6,1.1 -2.5,1.1 -0.4,0 -0.9,-0.1 -1.3,-0.3 -1.2,-0.5 -1.9,-1.6 -1.9,-2.8 0,-1.2 0.8,-2.3 1.9,-2.8 -1.2,-0.2 -1.9,-0.7 -1.9,-1.5 0,-0.7 0.4,-1.5 3.6,-1.5 1.6,0 3.2,0.2 4.3,1.3 1.2,1.4 0.7,2.3 0.4,2.6 z m 28.6,65.1 c -0.1,0 -0.1,0 -0.2,0 -1.3,0 -2.6,-1.5 -3.2,-3.6 -0.2,-0.6 -0.4,-1.1 -0.5,-1.2 -0.7,-0.5 -1,-1.2 -0.8,-1.9 0.2,-0.7 0.9,-1.2 1.7,-1.2 1.8,0 4.5,3.7 4.5,5.6 0,1.9 -1.2,2.2 -1.5,2.3 z"
   id="path11"
   inkscape:connector-curvature="0" />
</g>
</svg>